<svg version="1" xmlns="http://www.w3.org/2000/svg" width="733.333" height="733.333" viewBox="0 0 550.000000 550.000000"><path d="M380 49.9c-7.7 8-12.6 22.8-11.6 34.5.4 3.9.8 10.9 1 15.6.5 9.9 2.7 19.3 6.3 26.3l2.5 4.9-3.1 5.8c-4.6 8.6-10 23.3-12.7 34.2-4.2 17.2-10.5 31.8-20.1 46.8-7.5 11.5-25.9 29.8-38.3 38-9.3 6-18.9 11.5-19.4 10.8-2-2.6-9.7-14.5-11.7-18.2-2.7-4.8-2.7-4.9-.8-8 1-1.7 2.1-5.8 2.4-9.1.4-3.5 1.9-8.8 3.8-12.8 2.9-6.3 3-6.8 1.4-8.4-2.5-2.5-5.9-.5-11.3 6.9-2.5 3.5-4.7 6.5-4.9 6.7-.2.1-.9-1.6-1.5-4-.9-3.3-.9-4.4 0-4.7 3.1-1.1 8.3-7 11-12.7 2.2-4.5 4.7-7.8 9-11.5 4.2-3.7 6-5.9 6-7.6 0-2.2-.4-2.4-4.8-2.4-3.4 0-5.8.7-8.5 2.6-2.1 1.4-4.1 2.4-4.3 2.1-.3-.2 1.1-3.1 3-6.3 5.4-9.1 7.7-16.6 8.4-28.2.8-11.4 1.8-13.2 7.5-13.2 1.6 0 2.6-.4 2.2-1-1-1.6-5.7-1.2-7.8.7-1.9 1.7-1.9 1.7-1.6-.2.6-3.3 8.5-6.7 13.8-6 3 .5 4.1.3 3.6-.4-1-1.7-9.2-1.3-12.8.5-1.8.9-4.8 3-6.7 4.7l-3.4 3-1.9-6.1c-1-3.4-2.3-6.2-2.8-6.2-.7 0-.8.7-.4 1.7s1.2 4.1 1.8 7l1.1 5.1-5.6 6.1c-10.4 11.2-14.7 23.3-15.5 43.6-.4 8.6-1 13.7-1.9 15-1.8 2.5-1.8 7 0 9.8.7 1.2 2.4 6.4 3.6 11.5 1.2 5.1 2.6 9.5 3.1 9.8.5.3.9 2.6.9 5.1 0 3.6.4 4.6 2 5 1.1.3 2 .9 2 1.3s2.7 5 6 10.3c3.3 5.2 6 9.7 6 10 0 .3-1.7.8-3.7 1.2-8.9 1.6-31.9 10.2-45.8 17-24.8 12.1-42.9 25.1-65.4 47-6.8 6.6-12.1 11.1-11.7 10 2.7-7.5 17.1-54.4 20-65.5 3.8-14.5 10.4-43.2 13.1-57 .9-4.7 1.9-9.3 2.1-10.3.3-.9.1-1.7-.4-1.7-.4 0-3 5.7-5.6 12.7-5.8 15.3-15.9 35.8-23 46.8-2.9 4.4-11.4 16.7-18.9 27.3C113.8 326.9 86.3 373 70.1 406c-21.4 43.8-24.6 48.9-36.1 57.4-1.5 1.2-7.9 6-14.2 10.7-6.2 4.7-13.2 9.8-15.5 11.3-4.8 2.9-5.3 5.2-2.9 11 2.2 5.3 6 7.6 12.6 7.6 6 0 15.5-2.4 18-4.5.8-.7 3.6-2 6.1-2.8 12-4.1 26.8-4.9 54.9-3.3 12.9.7 20.7.3 72-3.8 31.6-2.5 61.6-5.1 66.5-5.7 28.9-3.4 84.9-13 115.5-19.9 20.6-4.7 36.9-7.4 53.5-9.1 14.2-1.4 47.8-1.7 66-.6 8.2.5 12.6.5 12-.1-1.3-1.3-41.4-10.1-66.5-14.6-52.1-9.5-112-15.9-159.4-17.2-12.1-.3-22.8-.8-23.6-1.1-1.4-.4 31.8-11.2 34.7-11.3 2 0 51.6-17.4 75.8-26.5 25.3-9.5 61.4-24.3 82.5-33.8 37.9-16.9 76.9-28.5 118.8-35.2 2.6-.4 4-1.1 3.5-1.6-1.6-1.6-64.7 3-105.8 7.7-34.1 3.9-92 12.6-95.5 14.4-.8.4-3.5 1-6 1.4-4 .6-1.3-1.3 22-15.6 69.8-43.1 190-122.1 190-124.9 0-1.2-2-.7-27 7.2-117.8 37.1-251.7 102.1-371.3 180.1-9.5 6.2-19.2 12.8-21.6 14.6-2.4 1.8-4.5 3.1-4.7 2.9-.2-.2 2.2-6 5.4-12.8 3.3-6.8 6.1-13.1 6.5-14 .3-.9 1.8-1.9 3.4-2.2 1.8-.5 4.2-2.5 6.7-5.7 17.6-23.1 46.5-48.3 71.7-62.6 18.3-10.3 42.5-19.9 61-23.9 4.1-.9 8.1-2.4 8.9-3.4.8-.9 4.2-3.2 7.5-5.1 13-7.3 24.5-16 35.1-26.5 17.1-17 28.9-36.4 36.8-60.5 1.8-5.6 3.6-9.7 4-9.1 1.3 2.1 10.5 6.1 14 6.1 1.9 0 3.8.4 4.1 1 .3.5 2.5 1 4.7 1 2.9 0 4.9.7 6.4 2.1 3.6 3.3 15.9 5.9 25.1 5.2 9.9-.7 13.5-2.4 13.1-6.1-.3-2.6-.6-2.7-7.4-3.3-7.4-.7-13.6-2.8-8.4-2.9 7.9-.1 17.7-7.2 24.9-17.9 4.8-7.2 6.3-11.1 5.9-15.2-.2-2.9-.7-3.5-3-3.7-2.3-.3-3.3.5-6.3 4.6-3.6 5.1-7.7 8.3-15.8 12.1-4.4 2.1-9.7 7.9-9.7 10.6 0 .5-2 1.8-4.5 2.8-2.5 1.1-4.5 2.2-4.5 2.7 0 .9-7 2.1-8.1 1.4-.5-.3.6-2.1 2.4-4 4.7-5.2 8.8-11.6 8.5-13.2-.7-3.6-3.4-3.5-8.1.1-2.5 1.9-7.5 4.9-11 6.5-3.6 1.7-7.3 4.2-8.4 5.6-2 2.4-2 2.5-4.9.7-1.6-1-4-3-5.4-4.5l-2.4-2.7 1.8-5.2c5.8-16.7 17.2-34.6 30-47.1 17-16.7 19.3-18.6 21.2-18.6 1.1 0 2.5-.5 3-1 .7-.7 2-.7 4.1 0 4.4 1.6 20-1.3 28.5-5.2 6.9-3.1 12.1-7.7 13.3-11.6.6-2.1.4-2.2-4.7-2.2-2.9 0-7.1.7-9.3 1.5-2.4.8-7.9 1.4-13.6 1.5-9.4 0-9.7.1-14.2 3.5-2.5 1.9-4.9 3.5-5.3 3.5-1.2 0 .8-7.5 3.2-11.6 2.8-4.7 3-6.9.8-7.8-5.7-2.2-16.4 12.5-18 24.7-.6 4.3-1.2 5.1-7.1 10-6.1 4.9-16 15.4-20.9 22.2l-2.2 2.9-1.6-3.8c-2-4.9-2.1-4.7 1.7-7.1 3.1-2 5.3-5.4 7.8-12.4.7-1.9 3-5.4 5.1-7.8 2.1-2.5 3.6-4.9 3.3-5.4-.4-.5-2.3-.9-4.3-.9-3.2 0-4.6.9-10.6 6.6l-6.8 6.6.7-4.4c.4-2.3 1.5-5.2 2.5-6.3 3.1-3.3 4-7.2 4-16.5 0-6.6.5-10.3 2.1-14.1 4.3-11 .2-15.7-7.1-8z"/></svg>